<svg width="182" height="108" viewBox="0 0 182 108" fill="none" xmlns="http://www.w3.org/2000/svg">
<path fill-rule="evenodd" clip-rule="evenodd" d="M90.5442 0C66.3974 0 51.3097 12.0006 45.2703 36.0019C54.3258 24.0013 64.8894 19.5019 76.961 22.5003C83.8484 24.2106 88.7735 29.1784 94.2203 34.6784C103.098 43.6345 113.375 53.9994 135.815 53.9994C159.958 53.9994 175.049 41.9987 181.085 18.001C172.033 30.0016 161.469 34.501 149.398 31.499C142.507 29.7887 137.582 24.821 132.135 19.3245C123.257 10.3613 112.984 0 90.5442 0ZM45.2703 53.9994C21.1271 53.9994 6.03581 66 0 90.0013C9.05548 78.0006 19.619 73.5013 31.6871 76.4997C38.5781 78.21 43.5032 83.1777 48.95 88.6777C57.8281 97.6339 68.1006 107.999 90.5442 107.999C114.687 107.999 129.779 96.0016 135.815 72.0003C126.759 84.001 116.195 88.5003 104.124 85.5019C97.2365 83.7881 92.3113 78.8203 86.8645 73.3239C77.9865 64.3677 67.7103 53.9994 45.2703 53.9994Z" fill="#38BDF8"/>
</svg>
